Coordinates
version=1
nRows=22
nColumns=24
inDegrees=yes

Units are S.I. units (second, meters, Newtons, ...)
Angles are in degrees.

endheader
time	pelvis_tilt	pelvis_list	pelvis_rotation	pelvis_tx	pelvis_ty	pelvis_tz	hip_flexion_r	hip_adduction_r	hip_rotation_r	knee_angle_r	ankle_angle_r	subtalar_angle_r	mtp_angle_r	hip_flexion_l	hip_adduction_l	hip_rotation_l	knee_angle_l	ankle_angle_l	subtalar_angle_l	mtp_angle_l	lumbar_extension	lumbar_bending	lumbar_rotation
      3.13000000	     -5.51589028	     -2.69701890	     -9.62953428	     -0.94879570	     -0.04003507	     -0.15123636	     -9.06829044	      7.09671953	      9.64668048	    -27.05240827	      1.03818963	     17.36559593	     23.50648567	     35.58171566	     -4.45269665	    -10.93966907	    -13.82745750	      5.27158054	     14.28922085	     -9.03587508	      3.47974539	      2.34763075	     10.04812168
      3.13500000	     -5.59215866	     -2.31022015	     -9.57708227	     -0.94060285	     -0.04053219	     -0.15171882	     -8.74158773	      6.44051202	      8.96005667	    -28.09415716	     -0.32025007	     18.46112500	     24.83294728	     35.60122638	     -3.92513608	    -10.83729319	    -14.50040416	      4.51589026	     13.42193491	     -8.86639606	      3.80383296	      1.92958402	      9.95361876
      3.14000000	     -5.70070094	     -1.82057994	     -9.56526432	     -0.93240280	     -0.04097855	     -0.15209961	     -8.29121547	      5.66554784	      8.35131031	    -29.26632249	     -1.62603949	     19.80316086	     25.85301207	     35.67885877	     -3.35382802	    -10.95490641	    -15.21237263	      3.73768089	     12.82094421	     -8.79643749	      4.17525793	      1.39812723	      9.87401133
      3.14500000	     -5.73852395	     -1.40220270	     -9.40417175	     -0.92417292	     -0.04128484	     -0.15276990	     -7.95015567	      4.93181050	      7.54980521	    -30.16344475	     -3.79904560	     20.50527400	     28.55098721	     35.66092189	     -2.67021936	    -10.42997683	    -15.80955364	      2.63058668	     11.61419630	     -8.19756988	      4.45772536	      0.93394696	      9.67285677
      3.15000000	     -5.85940797	     -0.89463855	     -9.29754974	     -0.91598586	     -0.04162794	     -0.15335363	     -7.40651449	      4.09369365	      6.82718023	    -31.28491832	     -5.72612522	     21.67671622	     30.36932555	     35.78085857	     -1.96975156	    -10.10762001	    -16.50181257	      1.62244877	     10.70507620	     -7.84690821	      4.82565261	      0.38795834	      9.51299760
      3.15500000	     -5.97500050	     -0.36162339	     -9.14367177	     -0.90775650	     -0.04191978	     -0.15400020	     -6.84210464	      3.21592042	      6.09733514	    -32.39189396	     -7.88325245	     22.75939951	     32.24903504	     35.91850365	     -1.19604034	     -9.63890320	    -17.24221975	      0.67965981	      9.76507832	     -7.73716923	      5.20241682	     -0.18959805	      9.30576134
      3.16000000	     -6.09926078	      0.18756339	     -8.98821360	     -0.89954931	     -0.04217578	     -0.15468024	     -6.21876859	      2.29743980	      5.39902270	    -33.50932150	    -10.27690516	     23.87458000	     34.27783900	     36.10108795	     -0.40245620	     -9.15369952	    -18.07617704	     -0.08881625	      8.95082056	     -7.94058507	      5.57084831	     -0.78053257	      9.09341093
      3.16500000	     -6.30784108	      0.75862255	     -8.80897177	     -0.89131234	     -0.04255026	     -0.15544462	     -5.44496379	      1.36079420	      4.74402422	    -34.79836377	    -12.48395249	     25.19412516	     35.11771737	     36.38765076	      0.45518909	     -8.45819491	    -18.94585683	     -0.79815169	      7.92080793	     -8.35166116	      6.04528703	     -1.37343205	      8.88648508
      3.17000000	     -6.43493168	      1.29677294	     -8.54610316	     -0.88310626	     -0.04278654	     -0.15624640	     -4.78365336	      0.44853982	      4.02143304	    -35.87108684	    -15.39295203	     25.87522550	     37.17693466	     36.60216323	      1.34483299	     -7.66360566	    -19.90338006	     -1.18922932	      7.10963646	     -9.53264408	      6.40019080	     -1.97023502	      8.60497139
      3.17500000	     -6.66898817	      1.86246935	     -8.33781294	     -0.87490936	     -0.04317958	     -0.15706038	     -3.91086083	     -0.48083115	      3.49095579	    -37.22935890	    -17.84570568	     27.03687182	     37.49758286	     36.91081092	      2.23003735	     -6.91679417	    -20.81187612	     -1.65019452	      6.14207582	    -10.19136026	      6.88233317	     -2.55424303	      8.39973415
      3.18000000	     -6.83004203	      2.40195008	     -8.02137050	     -0.86671380	     -0.04350820	     -0.15801945	     -3.14873811	     -1.40860677	      2.82667130	    -38.40901792	    -20.80687610	     27.68934974	     38.77591584	     37.16620597	      3.16291874	     -6.15529580	    -21.87422552	     -1.44371943	      5.56161026	    -12.49689337	      7.26120928	     -3.14310260	      8.06236895
      3.18500000	     -7.02270409	      2.91420414	     -7.75769453	     -0.85862696	     -0.04387392	     -0.15890050	     -2.26993291	     -2.25995030	      2.37676667	    -39.83637719	    -23.41940193	     28.38102176	     38.25734828	     37.37561814	      4.04415539	     -5.40469106	    -22.72233249	     -1.69703147	      4.60713182	    -13.16132756	      7.65116789	     -3.68389745	      7.82489593
      3.19000000	     -7.17127545	      3.45302523	     -7.44311503	     -0.85061245	     -0.04419643	     -0.15976480	     -1.40904394	     -3.14014596	      1.87248222	    -41.28832714	    -26.07829321	     28.73936982	     37.61665633	     37.49927502	      4.94912763	     -4.82139690	    -23.49281782	     -1.88547825	      3.86364331	    -13.69958332	      7.97349664	     -4.29153680	      7.54828081
      3.19500000	     -7.38878669	      3.94495567	     -7.01396516	     -0.84258074	     -0.04466336	     -0.16098266	     -0.47583339	     -3.98799403	      1.32432385	    -42.81390662	    -28.45182961	     29.26043823	     36.27153986	     37.70810634	      5.88962127	     -4.22600707	    -24.38672519	     -1.44671612	      3.31059557	    -15.74977411	      8.35502881	     -4.82171197	      7.06385051
      3.20000000	     -7.47028764	      4.41359306	     -6.64609796	     -0.83464083	     -0.04485459	     -0.16197440	      0.33203028	     -4.77186113	      0.89400219	    -44.26882645	    -31.11807426	     29.07367937	     35.05807447	     37.61719777	      6.76338395	     -3.65978179	    -24.95916992	     -1.41183832	      2.69269608	    -16.10962386	      8.57480275	     -5.35740108	      6.73629947
      3.20500000	     -7.54006220	      4.95509113	     -6.27166445	     -0.82670775	     -0.04504577	     -0.16301014	      1.16950892	     -5.66022815	      0.41007397	    -45.77730956	    -33.60676449	     28.66058507	     33.74343639	     37.46379665	      7.67325106	     -3.41014478	    -25.41682468	     -1.34660790	      2.18205928	    -16.20375004	      8.78512332	     -5.96972729	      6.37076006
      3.21000000	     -7.67913004	      5.32243488	     -5.72086474	     -0.81906656	     -0.04530147	     -0.16434267	      2.09195531	     -6.33354382	     -0.13716009	    -47.42495046	    -35.57215628	     28.30974021	     31.09699623	     37.36785638	      8.53088232	     -2.85220678	    -25.87855092	     -1.24657489	      1.75134166	    -16.24256734	      8.97162496	     -6.40534286	      5.81709077
      3.21500000	     -7.72211598	      5.79842708	     -5.26209771	     -0.81138620	     -0.04538592	     -0.16560955	      2.95384297	     -7.16448441	     -0.67782839	    -49.02134732	    -37.54711709	     27.50832847	     29.02385853	     37.07326102	      9.42307116	     -2.59288662	    -26.15229634	     -1.11298765	      1.39675762	    -16.04394671	      9.08497317	     -6.93452880	      5.44978649
      3.22000000	     -7.79327708	      6.25831235	     -4.71506621	     -0.80384942	     -0.04547498	     -0.16688297	      3.86451743	     -7.94664702	     -1.18894167	    -50.73104546	    -38.79777812	     26.82534576	     26.22262627	     36.77127196	     10.30590374	     -2.40189231	    -26.34138820	     -1.06223188	      1.20807907	    -15.34824550	      9.18818612	     -7.49584432	      4.83514913
      3.22500000	     -7.83430899	      6.69054884	     -4.18321785	     -0.79641902	     -0.04543521	     -0.16821077	      4.75911632	     -8.70229582	     -1.67860483	    -52.35853122	    -39.97802641	     25.86207043	     23.92546461	     36.36188188	     11.16497715	     -2.17335617	    -26.40201718	     -1.05907202	      0.97214417	    -14.38154948	      9.23617069	     -8.00529576	      4.30660675
      3.23000000	     -7.86813101	      7.09945271	     -3.64900031	     -0.78910427	     -0.04529652	     -0.16951736	      5.65818719	     -9.41211995	     -2.11642275	    -53.94358187	    -40.81196461	     24.81678653	     21.90238610	     35.89596512	     11.99102095	     -1.95240410	    -26.38268356	     -1.07902902	      0.76296700	    -13.26487142	      9.25354856	     -8.49467351	      3.77702139
      3.23500000	     -7.88115409	      7.52075163	     -3.19902880	     -0.78184556	     -0.04500377	     -0.17073025	      6.56464939	    -10.10214606	     -2.42015526	    -55.41549731	    -41.56290174	     23.57266745	     20.77013225	     35.34193047	     12.78987812	     -1.73558025	    -26.27946336	     -0.92869918	      0.56152651	    -12.72684912	      9.26016246	     -8.97563289	      3.35945408
